<?xml version="1.0" standalone="no"?>
<!DOCTYPE svg PUBLIC "-//W3C//DTD SVG 20010904//EN"
 "http://www.w3.org/TR/2001/REC-SVG-20010904/DTD/svg10.dtd">
<svg version="1.0" xmlns="http://www.w3.org/2000/svg"
 width="200.000000pt" height="200.000000pt" viewBox="0 0 200.000000 200.000000"
 preserveAspectRatio="xMidYMid meet">

<g transform="translate(0.000000,200.000000) scale(0.100000,-0.100000)"
fill="#000000" stroke="none">
<path d="M0 1000 l0 -1000 1000 0 1000 0 0 1000 0 1000 -1000 0 -1000 0 0
-1000z m604 -62 c-6 -45 -16 -59 -28 -39 -3 5 -24 7 -45 4 -34 -5 -43 -1 -64
21 -45 48 -45 124 0 172 21 23 30 26 67 22 l44 -5 8 81 8 81 8 -145 c4 -80 5
-166 2 -192z m66 52 c0 -64 -3 -80 -15 -80 -12 0 -15 16 -15 80 0 64 3 80 15
80 12 0 15 -16 15 -80z m125 70 c23 -9 25 -13 15 -26 -9 -10 -16 -12 -24 -4
-17 17 -34 12 -52 -15 -15 -23 -15 -27 0 -50 19 -28 38 -32 56 -10 10 13 9 15
-9 15 -12 0 -21 6 -21 15 0 10 11 15 35 15 31 0 35 -3 35 -25 0 -32 -33 -65
-64 -65 -13 0 -35 9 -50 21 -20 16 -26 29 -26 59 0 30 6 43 26 59 30 24 42 25
79 11z m85 -70 c0 -64 -3 -80 -15 -80 -12 0 -15 16 -15 80 0 64 3 80 15 80 12
0 15 -16 15 -80z m58 41 c3 -27 7 -32 25 -29 17 2 23 11 25 36 2 20 9 32 18
32 11 0 14 -17 14 -80 0 -64 -3 -80 -15 -80 -10 0 -15 10 -15 30 0 25 -4 30
-25 30 -21 0 -25 -5 -25 -31 0 -24 -4 -30 -17 -27 -15 3 -19 16 -21 67 -2 35
-1 70 2 78 10 25 31 8 34 -26z m192 18 c0 -17 -5 -20 -25 -17 -19 4 -25 1 -25
-13 0 -14 7 -19 25 -19 16 0 25 -6 25 -15 0 -9 -9 -15 -25 -15 -16 0 -25 -6
-25 -15 0 -9 9 -15 25 -15 16 0 25 -6 25 -16 0 -12 -9 -14 -42 -12 l-43 3 -3
64 c-4 84 -1 91 48 91 34 0 40 -3 40 -21z m94 11 c20 -7 26 -17 26 -38 0 -15
-5 -33 -12 -40 -9 -9 -7 -17 10 -35 27 -29 28 -37 3 -37 -10 0 -27 12 -37 28
l-18 27 -6 -25 c-3 -14 -14 -26 -23 -28 -15 -3 -17 6 -17 71 0 40 3 77 7 80 9
10 38 9 67 -3z m189 -21 c25 -30 22 -75 -8 -104 -50 -50 -125 -17 -125 56 0
72 86 103 133 48z m92 -17 l30 -47 3 48 c2 33 7 47 18 47 11 0 14 -17 14 -80
0 -96 -13 -103 -59 -32 l-31 47 0 -48 c0 -41 -3 -48 -17 -45 -15 3 -19 16 -21
67 -5 106 15 120 63 43z m-837 -159 c-2 -10 -10 -18 -18 -18 -8 0 -16 8 -18
18 -2 12 3 17 18 17 15 0 20 -5 18 -17z m29 -5 c-3 -8 -6 -5 -6 6 -1 11 2 17
5 13 3 -3 4 -12 1 -19z m66 7 c6 -15 -10 -32 -20 -21 -4 3 -1 6 6 6 7 0 9 5 6
11 -4 6 -14 8 -22 5 -8 -3 -11 -1 -8 4 9 15 32 12 38 -5z m34 -7 c-3 -8 -6 -5
-6 6 -1 11 2 17 5 13 3 -3 4 -12 1 -19z m46 2 c-3 -11 -7 -20 -8 -20 -1 0 -5
9 -8 20 -3 12 0 20 8 20 8 0 11 -8 8 -20z m64 3 c2 -6 -5 -13 -17 -16 -22 -6
-23 -5 -14 18 7 17 25 16 31 -2z m51 -17 c12 -3 12 -4 -3 -3 -11 1 -20 9 -21
17 0 8 1 10 3 3 2 -6 12 -14 21 -17z m92 23 c0 6 5 11 10 11 22 0 8 -26 -15
-28 -17 -1 -25 3 -25 14 0 14 3 14 15 4 10 -9 15 -9 15 -1z m74 -4 c4 -11 -1
-15 -17 -14 -12 0 -16 3 -9 6 6 2 10 9 6 14 -3 5 -1 9 4 9 6 0 12 -7 16 -15z
m63 -4 c0 -11 -5 -17 -9 -15 -5 3 -6 10 -3 15 4 5 2 9 -4 9 -5 0 -12 -8 -14
-17 -4 -14 -5 -12 -6 5 -1 15 5 22 18 22 13 0 19 -6 18 -19z m61 -6 c1 -14 -1
-16 -7 -6 -5 7 -14 10 -20 7 -6 -4 -11 -1 -11 6 0 22 36 16 38 -7z m49 11
c-18 -14 -18 -14 0 -20 15 -4 15 -5 -2 -3 -30 3 -33 37 -3 37 22 -1 22 -1 5
-14z m57 -1 c-4 -8 -7 -15 -9 -15 -2 0 -5 7 -9 15 -3 9 0 15 9 15 9 0 12 -6 9
-15z m81 6 c3 -5 1 -12 -5 -16 -5 -3 -10 1 -10 9 0 18 6 21 15 7z m25 -12 c0
-11 -4 -18 -10 -14 -5 3 -7 12 -3 20 7 21 13 19 13 -6z m60 1 c0 -11 -4 -20
-10 -20 -5 0 -7 7 -4 15 4 8 1 15 -5 15 -6 0 -11 -5 -11 -12 0 -6 -3 -9 -6 -5
-9 9 5 27 22 27 8 0 14 -9 14 -20z m79 11 c15 -10 5 -34 -12 -28 -11 3 -19 37
-9 37 4 0 13 -4 21 -9z m-684 -70 c-19 -8 -19 -8 0 -19 11 -6 15 -12 9 -12
-15 0 -36 25 -27 33 3 4 13 7 22 6 12 0 11 -2 -4 -8z m74 -8 c0 -12 -2 -13 -6
-5 -4 10 -8 10 -19 1 -11 -9 -14 -8 -14 5 0 9 8 16 20 16 13 0 20 -6 19 -17z
m52 3 c-9 -11 -9 -15 1 -19 8 -4 7 -6 -4 -6 -12 -1 -18 6 -18 19 0 12 7 20 16
20 13 0 14 -3 5 -14z m67 -4 c2 -7 -5 -12 -17 -12 -14 0 -19 5 -14 15 6 17 25
15 31 -3z m55 11 c-7 -2 -19 -2 -25 0 -7 3 -2 5 12 5 14 0 19 -2 13 -5z m34
-15 c-3 -8 -6 -5 -6 6 -1 11 2 17 5 13 3 -3 4 -12 1 -19z m58 3 c-3 -6 -11
-11 -16 -11 -5 0 -4 6 3 14 14 16 24 13 13 -3z m55 9 c0 -5 -6 -10 -12 -10 -9
0 -8 -4 2 -11 13 -9 13 -10 0 -6 -21 5 -26 37 -6 37 9 0 16 -4 16 -10z m63 -4
c6 -16 -1 -26 -17 -26 -6 0 -4 5 4 10 13 8 12 10 -2 10 -10 0 -18 5 -18 10 0
15 27 12 33 -4z"/>
<path d="M496 1048 c-21 -30 -20 -51 4 -79 l20 -24 20 24 c27 31 35 68 20 86
-18 22 -46 18 -64 -7z"/>
<path d="M1190 1020 c0 -13 5 -20 13 -17 6 2 12 10 12 17 0 7 -6 15 -12 18 -8
2 -13 -5 -13 -18z"/>
<path d="M1318 1004 c-11 -23 -10 -28 11 -45 33 -27 63 -9 59 34 -2 27 -8 33
-30 35 -22 3 -30 -2 -40 -24z"/>
<path d="M640 860 c0 -5 5 -10 10 -10 6 0 10 5 10 10 0 6 -4 10 -10 10 -5 0
-10 -4 -10 -10z"/>
</g>
</svg>
