<?xml version="1.0" standalone="no"?>
<!DOCTYPE svg PUBLIC "-//W3C//DTD SVG 20010904//EN"
 "http://www.w3.org/TR/2001/REC-SVG-20010904/DTD/svg10.dtd">
<svg version="1.0" xmlns="http://www.w3.org/2000/svg"
 width="800.000000pt" height="800.000000pt" viewBox="0 0 800.000000 800.000000"
 preserveAspectRatio="xMidYMid meet">
<metadata>
Created by potrace 1.16, written by Peter Selinger 2001-2019
</metadata>
<g transform="translate(0.000000,800.000000) scale(0.100000,-0.100000)"
fill="#000000" stroke="none">
<path d="M0 4000 l0 -4000 4000 0 4000 0 0 4000 0 4000 -4000 0 -4000 0 0
-4000z m1728 864 l22 -15 0 -444 c0 -290 -4 -446 -10 -450 -6 -4 -7 -11 -4
-17 4 -6 3 -8 -3 -5 -5 3 -10 30 -12 59 -2 58 -8 70 -21 48 -6 -8 -10 -10 -10
-5 0 9 -28 11 -77 6 -7 0 -13 -9 -13 -18 0 -15 -2 -16 -10 -3 -9 13 -10 13
-10 0 0 -13 -1 -13 -10 0 -6 10 -10 -2 -13 -40 -3 -57 -13 714 -10 810 2 43 7
59 24 73 28 22 125 24 157 1z m431 -1 c26 -22 25 -9 23 -282 -2 -197 -4 -222
-18 -217 -8 3 -12 2 -9 -3 8 -14 -14 -24 -28 -13 -7 5 -19 9 -27 9 -8 0 -27 4
-42 8 -21 5 -28 3 -28 -6 -1 -8 -8 -1 -16 15 -13 22 -18 26 -25 15 -5 -8 -9
83 -9 223 0 234 0 237 22 252 32 23 129 21 157 -1z m436 -8 c14 -13 25 -28 25
-33 0 -11 -195 -202 -206 -202 -5 0 -2 5 6 10 10 6 11 10 3 10 -10 0 -13 26
-13 98 0 129 8 140 108 141 43 1 57 -3 77 -24z m290 0 l25 -24 1 -423 c1 -528
0 -593 -7 -643 -19 -133 -95 -289 -190 -393 -71 -78 -166 -148 -185 -137 -7 5
-10 4 -5 -3 4 -6 -4 -16 -16 -23 -21 -11 -22 -11 -9 4 12 15 11 17 -3 17 -10
0 -16 -8 -16 -21 0 -15 -5 -19 -16 -15 -8 3 -12 2 -9 -4 3 -6 -1 -10 -9 -10
-8 0 -18 5 -21 10 -3 6 -16 10 -28 11 -12 0 -16 3 -9 6 31 12 5 55 -41 67 -18
4 -27 13 -27 26 0 11 -7 20 -15 20 -17 0 -105 84 -105 100 0 5 -7 10 -16 10
-18 0 -44 23 -44 39 0 6 -7 11 -16 11 -20 0 -44 24 -44 44 0 9 -7 16 -16 16
-22 0 -47 28 -40 45 4 11 -2 15 -19 15 -33 0 -35 37 -2 49 19 7 17 9 -21 16
-23 4 -49 13 -56 21 -8 8 -20 14 -26 14 -21 0 -40 28 -40 60 0 23 -5 33 -20
37 -11 3 -20 11 -20 18 0 14 -45 29 -60 20 -6 -4 -10 -4 -10 0 0 3 12 10 26
15 14 6 22 15 19 20 -3 6 0 13 8 16 8 3 29 25 48 50 l34 46 5 -84 c4 -59 12
-95 27 -125 13 -24 18 -43 13 -43 -6 0 -10 -5 -10 -12 0 -6 3 -8 7 -5 3 4 20
-3 37 -16 92 -67 174 -83 269 -51 63 21 110 63 145 129 23 46 26 63 30 197 2
81 1 163 -2 182 -8 44 -47 92 -82 100 -39 10 -121 -18 -199 -68 l-70 -46 95
91 c107 102 201 169 236 169 19 0 24 5 24 28 0 63 45 124 212 290 153 151 167
162 202 162 26 0 44 -7 61 -25z m865 -435 c0 -351 -5 -403 -48 -483 -27 -50
-62 -82 -127 -114 -54 -27 -86 -34 -164 -34 -129 -1 -245 68 -292 173 -20 45
-24 69 -24 158 0 121 19 177 82 242 102 105 317 113 420 16 l23 -21 0 196 0
197 65 0 65 0 0 -330z m2640 -145 l0 -475 -60 0 -60 0 0 475 0 475 60 0 60 0
0 -475z m-1374 441 c3 -13 4 -38 2 -57 l-3 -34 -62 -3 -63 -3 0 61 0 60 60 0
c54 0 60 -2 66 -24z m256 -153 l3 -128 88 -3 87 -3 0 -49 0 -50 -90 0 -90 0 0
-117 c0 -138 10 -181 52 -229 36 -40 68 -59 121 -68 l37 -7 0 -56 0 -56 -50 6
c-107 13 -209 85 -251 180 -23 51 -24 60 -27 380 l-3 327 60 0 60 0 3 -127z
m-760 -124 c104 -22 181 -78 226 -163 l27 -51 0 -265 c0 -248 -1 -268 -21
-311 -31 -66 -78 -115 -142 -146 -48 -22 -74 -28 -157 -31 -114 -4 -183 14
-245 67 l-35 30 41 41 41 41 52 -32 c114 -71 273 -41 327 62 18 36 32 189 17
189 -6 0 -17 -7 -24 -17 -8 -9 -36 -27 -64 -39 -102 -48 -247 -24 -337 55
-155 137 -133 427 40 528 83 49 160 62 254 42z m1440 -14 c62 -22 132 -85 166
-149 27 -50 27 -55 30 -263 l3 -213 -60 0 -61 0 0 40 0 41 -46 -35 c-63 -48
-103 -59 -193 -54 -125 8 -222 73 -275 187 -30 65 -30 215 0 282 25 54 73 111
118 138 82 51 215 61 318 26z m-1962 -310 l0 -315 -60 0 -60 0 0 315 0 315 60
0 60 0 0 -315z m1020 303 c0 -7 1 -149 3 -315 l4 -303 -64 0 -63 0 0 315 0
315 60 0 c41 0 60 -4 60 -12z m-60 -895 c11 -32 23 -65 26 -73 4 -9 17 13 33
55 21 54 32 71 49 73 21 3 22 1 22 -87 0 -74 -3 -91 -15 -91 -12 0 -15 16 -16
78 l-1 77 -26 -78 c-18 -53 -31 -77 -41 -75 -7 2 -26 37 -40 78 l-26 74 -3
-77 c-4 -108 -22 -97 -22 13 0 82 2 90 19 90 15 0 25 -15 41 -57z m468 45 c17
-17 15 -48 -5 -70 -15 -17 -15 -21 6 -58 18 -32 19 -40 7 -40 -8 0 -25 18 -37
39 -28 51 -55 49 -51 -3 3 -27 0 -36 -12 -36 -13 0 -16 15 -16 90 l0 90 48 0
c26 0 53 -5 60 -12z m689 -63 l43 -69 0 72 c0 57 3 72 15 72 12 0 15 -17 15
-90 0 -82 -2 -90 -19 -90 -12 0 -34 24 -65 73 l-45 72 -1 -72 c0 -58 -3 -73
-15 -73 -12 0 -15 17 -15 91 0 87 1 90 22 87 14 -2 36 -26 65 -73z"/>
<path d="M3356 4325 c-82 -29 -132 -93 -142 -182 -9 -75 11 -131 65 -184 124
-120 313 -52 346 124 19 99 -51 213 -148 242 -61 18 -71 18 -121 0z"/>
<path d="M4381 4325 c-85 -27 -141 -107 -141 -205 0 -126 88 -220 207 -220 59
0 102 20 146 66 108 114 56 318 -92 363 -47 14 -65 13 -120 -4z"/>
<path d="M5756 4325 c-156 -55 -187 -291 -50 -388 138 -97 324 8 324 183 0
102 -63 186 -156 209 -54 14 -70 13 -118 -4z"/>
</g>
</svg>
